  <svg id="share_link" xmlns="http://www.w3.org/2000/svg" viewBox="0 0 13.2 13.2">
    <path id="share_link_inner" 
      d="M8.38,4.9a4.15,4.15,0,0,0-.51-.43.42.42,0,0,0-.52,0L6.84,5a1,1,0,0,0-.25.75.4.4,0,0,0,.17.33A.89.89,0,0,1,7,6.29,1.81,1.81,0,0,1,7,8.81L5.27,10.48l0,0a1.77,1.77,0,0,1-2.52,0,1.84,1.84,0,0,1,0-2.54L3,7.62a.4.4,0,0,0,.09-.42,4.93,4.93,0,0,1-.29-1.37.29.29,0,0,0-.11-.26h0a.39.39,0,0,0-.56,0l-.93,1-.06.07a3.83,3.83,0,1,0,5.53,5.29l1.73-1.65.09-.13L8.62,10a3.61,3.61,0,0,0-.18-5Z" />
    <path id="shear_link_inner-2" 
      d="M12,1.34l-.16-.16a3.75,3.75,0,0,0-5.32.05l0,0L4.83,3a3.86,3.86,0,0,0,0,5.34,4.15,4.15,0,0,0,.51.43.41.41,0,0,0,.51,0l.59-.53a1,1,0,0,0,.29-.75.44.44,0,0,0-.18-.26A1.88,1.88,0,0,1,6.3,7a1.78,1.78,0,0,1,0-2.51L8,2.74a1.79,1.79,0,0,1,2.53,0l0,0a1.82,1.82,0,0,1,0,2.53l-.32.34a.39.39,0,0,0-.1.41,4.53,4.53,0,0,1,.24,1.32.39.39,0,0,0,.4.38h0A.36.36,0,0,0,11,7.61l1-.92A3.83,3.83,0,0,0,12,1.34Z" />
  </svg>