  <svg id="share_twitter" xmlns="http://www.w3.org/2000/svg" viewBox="0 0 13 13">
    <path id="share_twitter_inner" 
      d="M4.09,12.35c4.9,0,7.59-4.5,7.59-8.4V3.56A5.65,5.65,0,0,0,13,2a4.65,4.65,0,0,1-1.51.46A3,3,0,0,0,12.67.87,5.16,5.16,0,0,1,11,1.59,2.55,2.55,0,0,0,9,.65a2.82,2.82,0,0,0-2.64,3,3.08,3.08,0,0,0,.07.68A7.35,7.35,0,0,1,.9,1.19,3.26,3.26,0,0,0,.5,2.65,3,3,0,0,0,1.69,5.13,2.51,2.51,0,0,1,.5,4.77h0A2.89,2.89,0,0,0,2.64,7.65a2.75,2.75,0,0,1-.7.1,2.07,2.07,0,0,1-.5-.06A2.71,2.71,0,0,0,3.93,9.76,5,5,0,0,1,.62,11H0a7,7,0,0,0,4.07,1.32" />
  </svg>