  <svg id="share_print" xmlns="http://www.w3.org/2000/svg" viewBox="0 0 14 14">
    <g id="share_print_inner" >
      <path
        d="M12.71,2.55H11.62V.16H2.38V2.55H1.29a.8.8,0,0,0-.79.8V9.63a.79.79,0,0,0,.79.79H2.38v3.42h9.24V10.42h1.09a.79.79,0,0,0,.79-.79V3.35A.8.8,0,0,0,12.71,2.55Zm-1.78,7.87v2.74H3.07V9.06h7.86Zm0-7.87H3.07V.84h7.86ZM11.81,5h0a.68.68,0,1,1,0-1.36.69.69,0,0,1,.67.68.67.67,0,0,1-.66.68h0Z" />
      <rect x="3.68" y="11.49" width="6.7" height="0.71" />
      <polygon points="10.35 10.42 10.35 10 3.65 10 3.65 10.71 10.35 10.71 10.35 10.42" />
    </g>
  </svg>