  <svg id="share_line" xmlns="http://www.w3.org/2000/svg" viewBox="0 0 19 7">
    <path id="share_line_inner" 
      d="M1,7H3.84a.75.75,0,0,0,.75-.74V6.19a.75.75,0,0,0-.75-.74H1.78V.74A.75.75,0,0,0,1,0H1A.74.74,0,0,0,.23.74V6.25A.74.74,0,0,0,1,7Zm17.8-3.45V3.48A.74.74,0,0,0,18,2.74H16V1.56H18a.74.74,0,0,0,.74-.74V.76A.76.76,0,0,0,18,0H15.16a.77.77,0,0,0-.75.75v5.5a.77.77,0,0,0,.75.75H18a.75.75,0,0,0,.74-.75v0A.74.74,0,0,0,18,5.46H16V4.28H18a.74.74,0,0,0,.74-.74ZM13.23,6.77h0a.73.73,0,0,0,.21-.52V.74A.74.74,0,0,0,12.72,0h-.06a.75.75,0,0,0-.75.74V4L9.23.38A.73.73,0,0,0,8.58,0H8.52a.74.74,0,0,0-.74.74V6.25A.74.74,0,0,0,8.51,7h.07a.75.75,0,0,0,.75-.74V3L12,6.69l.06.07h0a.58.58,0,0,0,.28.21.71.71,0,0,0,.29,0h.06a.85.85,0,0,0,.35-.08A.61.61,0,0,0,13.23,6.77ZM5.93,7H6a.74.74,0,0,0,.74-.74V.74A.74.74,0,0,0,6,0H5.93a.74.74,0,0,0-.7.74V6.25A.73.73,0,0,0,5.93,7Z" />
  </svg>